<svg version="1.2" xmlns="http://www.w3.org/2000/svg" viewBox="0 0 543 81" width="543" height="81">
	<title>watchshop-logoV31-svg</title>
	<style>
		.s0 { fill: #04b995 } 
		.s1 { fill: #ffffff } 
		.s2 { fill: #fbfbfb } 
	</style>
	<g id="_x36_df44b66-91a5-4950-b975-008fb4a68449">
		<path id="Layer" class="s0" d="m476 13.6c0 0-6.1-6.5-21.5-6.5c-14.8 0-21.6 7.1-21.6 7.1v-6.7c0-4.1 2.8-7.5 10.1-7.5h22.6c7.3 0 10.4 3.3 10.4 7.5z" />
		<path id="Layer" class="s0" d="m476 73.3c0 4.2-3.1 7.5-10.4 7.5h-22.6c-7.3 0-10.1-3.4-10.1-7.5v-6.7c0 0 6.8 7.1 21.6 7.1c15.4 0 21.5-6.5 21.5-6.5z" />
		<path id="Layer" class="s0" d="m78.8 11.8h8.1l-22.9 57.2h-1.8l-18.7-46.3l-18.8 46.3h-1.9l-22.8-57.2h8.2l15.6 39.3l15.8-39.3h7.8l15.8 39.3z" />
		<path id="Layer" fill-rule="evenodd" class="s0" d="m104.6 11.5h5.7l25.6 57.3h-8.3l-7.6-16.8h-24.2l-7.1 16.8h-8.4zm12.2 33.2l-9.3-20.7l-8.6 20.7z" />
		<path id="Layer" class="s0" d="m129.1 11.8h47.6v7.3h-19.8v49.7h-8.2v-49.7h-19.5z" />
		<path id="Layer" class="s0" d="m233.4 55.6v9c-6.4 3.4-13.5 5.1-20.7 4.9c-5.6 0.2-11.2-1.2-16.2-3.8c-4.4-2.6-8-6.2-10.5-10.6c-2.6-4.4-3.9-9.5-3.9-14.6c-0.2-7.9 3.1-15.5 8.9-20.9c5.9-5.7 13.2-8.5 21.8-8.5c6 0 12.6 1.6 19.9 4.7v8.8q-9.9-5.7-19.5-5.7c-6-0.2-11.8 2.1-16.2 6.2c-4.3 4-6.6 9.6-6.5 15.5c0 6.3 2.1 11.4 6.4 15.4c4.3 4 9.6 6 16.2 6c7.2-0.2 14.3-2.4 20.3-6.4z" />
		<path id="Layer" class="s0" d="m283.6 11.8h8.1v57h-8.1v-24.8h-32v24.8h-8.1v-57h8.1v24.6h32z" />
		<path id="Layer" class="s1" d="m344 15.5v11.1c-7.6-3.3-13.6-5-18-5c-2.1-0.1-4.2 0.3-6.1 1.3c-1.3 0.6-2.2 1.9-2.3 3.4c0 1.2 0.6 2.4 1.6 3.1c1.1 1 3.7 2.2 8 3.8c3.4 1.3 6.8 2.7 10.1 4.3c2.6 1.4 4.8 3.3 6.6 5.6c1.9 2.7 2.9 5.9 2.8 9.2c0.2 4.9-2.1 9.6-6 12.6c-4 3.1-9.3 4.7-15.9 4.7c-7.2 0-14.3-1.9-20.6-5.5v-12.2c3.2 2.2 6.6 4 10.1 5.6c3 1.2 6.2 1.8 9.4 1.7c5.6 0 8.4-1.8 8.4-5.3c-0.1-1.3-0.7-2.5-1.7-3.4q-1.6-1.6-8.1-3.9c-3.5-1.1-6.9-2.6-10.1-4.3c-2.5-1.4-4.8-3.3-6.5-5.6c-1.9-2.7-2.8-6-2.7-9.3c-0.1-4.7 2.1-9.1 5.9-11.9c3.9-3 9.2-4.5 15.8-4.5c6.7 0.2 13.2 1.8 19.3 4.5z" />
		<path id="Layer" class="s1" d="m411.5 11.8v57h-14.2v-23h-28.2v23.1h-14.2v-57h14.2v22.9h28.2v-23z" />
		<path id="Layer" fill-rule="evenodd" class="s1" d="m454.6 11.1c9.7 0 17.5 2.9 23.5 8.8c6 5.9 9 12.7 9 20.5c0 7.8-3 14.7-9.1 20.6c-6.1 5.9-13.9 8.7-23.4 8.7c-9.5 0-17.5-2.9-23.5-8.7c-6-5.8-9.1-12.6-9.1-20.6c0-7.8 3-14.7 9-20.5c6-5.8 13.9-8.8 23.6-8.8zm0 46.8c5.4 0 9.7-1.6 13-4.8c3.3-3.2 4.9-7.4 4.9-12.6c0-5.2-1.6-9.5-4.9-12.6c-3.3-3.1-7.6-4.8-13-4.8c-5.4 0-9.7 1.6-13 4.8c-3.3 3.2-4.9 7.4-4.9 12.6c0 5.2 1.6 9.4 4.9 12.6c3.3 3.2 7.6 4.8 13 4.8z" />
		<path id="Layer" fill-rule="evenodd" class="s2" d="m499 10.8h25.5c5.8 0 10.4 1.7 13.8 5c3.3 3.1 5.2 7.4 5.1 11.9c0.1 4.6-1.8 9-5.1 12.2q-5.1 5.1-13.8 5.1h-11.3v22.9h-14.2zm14.2 10.5v13.3h6.6c5.9 0 8.9-2.2 8.9-6.6c0-2.5-0.8-4.2-2.4-5.2q-2.4-1.5-8.1-1.5z" />
	</g>
</svg>